<?xml version="1.0" encoding="UTF-8"?>
<svg version="1.1" xmlns="http://www.w3.org/2000/svg" width="501" height="501">
<path d="M0 0 C1.19953456 4.25620655 0.71707475 7.0106918 -0.51953125 11.22265625 C-0.87700439 12.4643457 -1.23447754 13.70603516 -1.6027832 14.98535156 C-2.00582987 16.34445807 -2.40907487 17.70350578 -2.8125 19.0625 C-3.44206987 21.22577971 -4.06797429 23.39010008 -4.69377136 25.55447388 C-5.13108764 27.06582627 -5.56976162 28.5767864 -6.00971985 30.08737183 C-7.53266771 35.32859897 -8.98943787 40.58463418 -10.40625 45.85546875 C-22.45980871 90.58992845 -36.30975965 137.17335695 -64 175 C-64.39219727 175.54479004 -64.78439453 176.08958008 -65.18847656 176.65087891 C-84.68746591 203.5875449 -110.94277251 224.74353543 -144 232 C-145.01126953 232.22429687 -145.01126953 232.22429687 -146.04296875 232.453125 C-180.3949421 239.6072164 -218.70077551 235.47130048 -253 230 C-250.65897031 206.14254016 -235.08995515 182.30425114 -219.0078125 165.18359375 C-216.94487267 163.00184678 -216.94487267 163.00184678 -215.05859375 160.4921875 C-211.326117 155.9735534 -206.59756991 152.59809819 -202 149 C-201.17628906 148.33742188 -200.35257813 147.67484375 -199.50390625 146.9921875 C-188.21072226 138.28886005 -175.00668337 131.56404327 -161.46875 127.1328125 C-158.63878714 125.83425359 -157.58277093 124.64819602 -156 122 C-155.02480839 119.07442518 -154.89244467 117.44097687 -155.625 114.4375 C-157.42677393 111.24344621 -158.76629731 109.78885681 -162 108 C-168.52274125 107.77999344 -174.31719828 109.97318079 -180.1875 112.5625 C-181.01193604 112.91965088 -181.83637207 113.27680176 -182.68579102 113.64477539 C-201.19092251 121.82680376 -216.89012044 133.51880782 -231 148 C-231.53367188 148.47695313 -232.06734375 148.95390625 -232.6171875 149.4453125 C-245.88394006 161.72118728 -254.77800497 178.13562186 -263 194 C-263.33 194 -263.66 194 -264 194 C-265.47550594 141.92010522 -257.28708793 78.09274594 -220.4921875 38.12109375 C-213.02188611 30.27101238 -205.31734505 23.59468595 -196 18 C-195.39559082 17.63213379 -194.79118164 17.26426758 -194.16845703 16.88525391 C-137.68901236 -16.95055725 -62.30664184 -7.31578584 0 0 Z " fill="#023413" transform="translate(444,121)"/>
<path d="M0 0 C21.19686117 7.6001181 34.83573817 22.94896269 44.29882812 42.94140625 C54.59500151 66.55833272 57.93610852 92.24858182 61.44726562 117.55078125 C64.42111984 145.72421339 64.42111984 145.72421339 73.69726562 172.17578125 C74.03983398 172.83594238 74.38240234 173.49610352 74.73535156 174.17626953 C78.2016674 180.64086871 82.01012357 186.5971372 88.88476562 189.67578125 C86.59620317 197.35633555 84.24922893 205.01828079 81.88476562 212.67578125 C78.05229775 212.11575513 75.55666011 211.06908815 72.38476562 208.86328125 C71.65257812 208.36183594 70.92039062 207.86039063 70.16601562 207.34375 C48.07371674 191.1906479 43.17532583 163.67619016 39.20117188 138.33203125 C38.23384009 132.08750792 37.31959444 125.83548844 36.41210938 119.58203125 C30.68273485 69.36191541 30.68273485 69.36191541 3.02148438 29.21484375 C-4.32186933 24.19764556 -12.95982983 22.11871431 -21.55273438 20.30078125 C-25.1167802 19.42261531 -27.77054183 18.71125473 -30.36523438 16.05078125 C-32.59893895 11.74292242 -33.2019495 8.43015991 -32.11523438 3.67578125 C-25.46257168 -8.06421175 -10.61249343 -3.53388443 0 0 Z " fill="#013413" transform="translate(88.115234375,132.32421875)"/>
<path d="M0 0 C5.80719471 3.6853351 8.85634676 8.46912424 11 15 C12.18970507 22.28214633 11.26690974 28.38061514 7.62109375 34.8046875 C3.7490743 40.04824155 -1.59044409 43.69192736 -8 45 C-14.94103256 45.85923807 -20.96719326 44.57389046 -27 41 C-32.18187059 36.42045016 -35.61678389 31.72967309 -36.3359375 24.73046875 C-36.42729509 16.44433491 -36.11858264 10.55650788 -30.45703125 4.29296875 C-21.58506715 -4.05114394 -10.88895292 -4.97896361 0 0 Z " fill="#013414" transform="translate(328,379)"/>
<path d="M0 0 C5.80719471 3.6853351 8.85634676 8.46912424 11 15 C12.18970507 22.28214633 11.26690974 28.38061514 7.62109375 34.8046875 C3.7490743 40.04824155 -1.59044409 43.69192736 -8 45 C-14.94103256 45.85923807 -20.96719326 44.57389046 -27 41 C-32.18187059 36.42045016 -35.61678389 31.72967309 -36.3359375 24.73046875 C-36.42729509 16.44433491 -36.11858264 10.55650788 -30.45703125 4.29296875 C-21.58506715 -4.05114394 -10.88895292 -4.97896361 0 0 Z " fill="#013414" transform="translate(183,379)"/>
</svg>
